<svg width="484" height="359" viewBox="0 0 484 359" fill="none" xmlns="http://www.w3.org/2000/svg">
<path fill-rule="evenodd" clip-rule="evenodd" d="M376.884 82.8853C365.665 82.4419 354.769 79.8071 343.319 77.0529C343.762 80.0203 339.354 79.142 337.709 78.9203C348.051 82.3311 362.135 86.2961 374.241 86.407C375.785 86.407 377.319 86.2961 378.862 86.0744L386.015 84.6419C386.348 84.6419 389.647 83.2094 389.536 82.6636L389.426 82.4419C389.315 82.4419 389.093 82.3311 388.769 82.1094L377.984 80.0203C373.807 79.2528 360.49 74.6312 353.004 72.6445C347.394 71.2119 341.997 71.1011 338.587 70.4445C337.709 70.3337 336.933 70.1119 336.166 70.0011C337.487 70.8794 338.809 71.7662 340.019 72.7553C340.463 73.0879 340.898 73.5227 341.23 73.8553C345.084 75.0661 350.037 76.6095 354.871 78.0335C363.124 80.4552 369.62 81.9985 376.876 82.8768L376.884 82.8853ZM343.984 139.453L341.673 135.488C339.474 131.634 337.496 125.58 335.399 121.291L331.434 120.412C333.966 126.023 334.844 130.321 338.365 135.266L333.412 128.445C333.301 130.21 331.647 130.867 330.224 130.867C332.534 134.721 336.388 139.777 341.443 140.221C342.211 140.331 343.865 140.11 343.975 139.564V139.453H343.984ZM357.514 134.832C352.339 130.867 350.472 125.81 347.394 120.08L344.095 121.402C346.294 125.58 348.826 130.645 351.793 133.288C348.272 130.867 345.084 125.691 342.33 121.623H337.709C339.363 124.267 342.108 129.11 345.408 132.632C348.051 135.386 352.228 138.242 356.414 137.697C357.292 137.586 359.057 136.929 359.057 136.375C359.057 136.375 359.057 136.264 358.946 136.264C358.946 136.153 358.836 135.932 358.614 135.821C358.281 135.488 357.957 135.053 357.514 134.832ZM366.543 128.232C360.6 124.378 353.78 115.356 348.605 110.18C347.505 110.291 346.405 110.18 345.305 110.18C350.37 116.78 356.09 125.256 363.243 129.443C357.744 127.021 352.68 122.288 348.17 117.556V118.767L354.334 128.675C355.212 129.332 356.099 129.886 356.977 130.44C360.055 132.205 364.676 133.962 368.418 132.862C369.297 132.64 370.951 131.762 370.84 131.208C370.84 131.208 370.729 130.986 370.729 131.097L366.551 128.232H366.543ZM378.317 120.856C371.931 116.567 365.989 112.269 358.836 109.08L357.625 108.858C356.303 109.302 354.982 109.626 353.66 109.848L357.182 112.048C362.791 114.691 369.944 119.423 374.131 121.512L359.279 114.913L353.669 112.491C352.237 111.724 350.804 110.948 349.594 110.18H349.372C350.915 111.502 352.782 113.148 354.871 115.134C356.082 116.345 357.514 117.778 358.946 119.099C361.479 120.31 364.335 121.632 367.532 122.954C370.831 124.164 376.006 125.819 379.749 125.486C380.405 125.486 382.614 125.043 382.614 124.497V124.275C382.614 124.164 382.392 124.054 382.281 123.832L378.317 120.864V120.856ZM366.21 106.215C371.709 110.504 378.317 114.358 384.694 116.447L372.587 112.593C370.055 111.493 363.013 109.404 359.714 107.972V108.083C361.913 108.85 363.891 109.839 365.989 110.837C368.188 112.048 370.388 113.369 372.587 114.691L379.63 119.202C381.718 119.645 383.918 119.969 386.126 119.858C387.337 119.858 388.437 119.637 389.536 119.304L391.736 117.871L391.625 117.65L388.982 115.561L380.397 110.939C377.319 109.95 374.565 108.628 372.144 107.417C367.634 105.107 363.448 102.028 360.924 99.4958C359.16 99.6067 357.403 99.6067 355.638 99.4958C358.281 101.15 365.434 105.661 366.202 106.207L366.21 106.215ZM346.849 108.304C349.926 108.304 353.78 107.861 356.755 106.872C357.309 106.761 359.509 105.883 359.509 105.328C359.509 105.328 359.509 105.107 359.509 105.217C359.398 105.107 359.287 104.885 359.066 104.774C355.434 101.807 343.992 101.474 335.185 95.8634L326.489 89.3658L320.214 86.8333L323.181 90.1333C323.181 90.1333 325.713 92.3332 326.924 93.6549C328.902 95.744 332.099 98.0548 335.399 100.042C340.241 102.907 346.516 104.22 350.472 104.663C350.472 104.663 348.494 104.663 345.519 104.331C337.709 103.563 332.201 100.92 326.148 95.9657C326.37 97.1765 326.259 98.609 325.159 99.5982C330.991 104.987 337.7 108.074 346.507 108.296V108.185L346.84 108.296L346.849 108.304ZM330.232 117.991C333.975 119.423 339.141 119.969 343.106 119.423C343.66 119.312 346.073 118.869 346.183 118.323C346.183 118.323 346.183 118.102 346.183 118.213C345.74 116.234 337.053 112.491 335.288 111.502C329.567 108.534 327.478 105.013 323.181 100.383C321.527 100.383 319.328 99.2827 318.006 98.6176L325.705 108.526C329.115 112.491 333.404 114.802 338.033 116.123L333.523 114.913C326.037 112.602 322.303 106.88 317.461 102.148C316.028 100.715 312.729 97.3044 310.751 95.3262L313.394 100.715C314.05 103.026 313.172 101.815 314.826 103.248C316.259 104.569 318.236 106.659 320.436 109.08L326.157 115.902L330.232 117.991ZM314.05 117.658C317.571 121.836 323.292 127.123 328.902 128.556H331.545V128.445C332.099 126.68 326.813 119.747 325.935 118.647C325.492 118.093 320.325 111.715 319.115 110.061C316.804 106.872 314.937 105.107 313.829 103.35C313.829 104.339 313.829 105.217 313.275 106.215C317.35 113.037 320.76 118.102 326.037 123.712C320.095 118.869 316.02 114.026 311.075 107.758L310.086 107.869C310.529 108.526 310.964 109.302 311.297 109.958C312.396 112.269 313.275 114.913 313.94 117.556C314.013 117.556 314.05 117.593 314.05 117.667V117.658ZM314.826 121.845C315.159 124.156 315.594 127.788 314.715 130.099C317.58 134.832 322.636 139.564 328.356 140.442L330.667 140.11L330.778 139.999L330.334 138.234L326.157 131.523C325.5 130.756 325.057 129.869 324.503 128.991C322.414 128.001 320.538 126.569 318.893 125.136C318.782 125.026 318.671 124.915 318.56 124.804C320.325 129.536 322.636 133.058 325.824 136.247C320.436 132.171 317.793 128.104 314.818 121.828L314.826 121.845ZM299.966 109.515C301.944 113.915 304.919 123.38 308.219 127.345C309.319 128.777 312.294 131.745 313.172 128.888V128.667C313.726 122.945 311.629 112.926 308.884 107.648C307.119 107.093 305.03 105.559 303.709 104.348C305.474 106.769 306.676 110.291 307.562 113.48C308.006 115.023 308.33 116.558 308.773 117.991L310.64 125.691L306.019 114.026C304.587 110.504 302.72 107.093 300.188 105.115L299.966 109.515ZM300.955 123.823V126.577C301.722 128.445 302.822 130.21 304.033 131.967C305.687 134.388 308.986 137.688 312.064 138.566C312.618 138.788 314.374 139.223 314.707 138.677C314.707 138.677 314.818 138.566 314.707 138.566L314.374 136.588L312.507 132.299C310.853 132.742 309.319 131.532 308.219 130.534L309.873 133.399L308.441 131.532L306.463 128.453C305.141 126.688 304.263 124.821 303.496 123.064C302.507 120.754 301.407 118.775 300.631 117.01L300.963 123.832L300.955 123.823ZM294.799 112.602C296.121 117.556 295.456 122.834 296.121 127.899C294.467 121.299 295.021 115.569 290.946 109.413C291.057 110.18 291.168 111.067 291.168 111.834C291.168 114.478 290.946 117.121 290.613 119.645C290.835 121.078 291.057 122.51 291.381 124.156C292.037 127.021 293.248 130.756 295.558 132.964C296.112 133.621 298.09 135.053 298.636 134.618C298.747 134.618 298.858 134.508 298.747 134.508L298.968 129.553C298.747 123.943 300.068 118.434 298.09 112.278C297.101 113.045 295.558 113.156 294.791 112.61L294.799 112.602ZM280.715 117.991C280.826 121.18 281.593 126.577 284.236 128.888C284.68 129.332 285.89 130.21 286.436 129.988L286.547 129.877L287.646 125.699C288.525 120.088 290.289 114.034 289.957 107.98L288.857 105.78L288.746 105.337C288.192 105.669 287.646 105.993 287.092 106.326C287.092 107.204 286.981 107.98 286.871 109.08C286.316 114.58 285.106 118.213 285.106 124.045L284.662 113.813C283.673 115.023 282.13 115.578 280.698 115.023V117.991H280.715ZM279.172 114.034C278.515 113.48 278.072 112.602 277.629 111.724C275.762 112.602 273.997 113.489 272.13 114.367C271.797 116.456 271.797 119.321 272.351 120.532C272.684 121.086 277.083 118.988 278.072 118.332C278.405 118.221 278.626 117.999 278.95 117.778C278.95 116.456 279.061 115.245 279.172 114.034ZM283.239 112.713C284.117 111.391 284.671 109.634 285.003 107.648C283.239 108.748 281.482 109.737 279.615 110.726L279.394 110.837C279.948 111.937 281.048 113.915 281.926 113.915H282.037L283.247 112.704L283.239 112.713ZM297.988 109.737C298.755 106.769 298.21 102.361 296.888 98.5153C296.01 99.5044 295.021 100.383 294.134 101.269C294.689 103.035 295.123 104.791 295.456 106.445L293.256 101.935C292.489 102.591 291.713 103.145 290.946 103.802C290.835 103.913 290.724 103.913 290.503 104.024L290.835 104.467L293.589 109.2C294.032 109.856 296.343 111.732 297.11 111.4L297.221 111.289L297.988 109.745V109.737ZM311.518 101.704C310.197 97.0827 307.119 92.3503 302.933 89.4852C302.49 90.4743 302.055 91.4635 301.501 92.4526L301.39 92.5634C304.144 94.8742 306.343 97.8502 308.099 100.707C308.432 101.15 308.543 101.474 308.543 101.474C306.232 98.7199 303.589 95.9742 300.401 94.0983C300.068 94.7549 299.633 95.3091 299.079 95.9657C298.747 96.4091 298.423 96.7331 298.09 97.1765C299.634 98.2765 301.39 99.8199 303.479 101.576L308.21 105.209C308.978 105.541 311.075 106.531 311.621 105.976L311.731 105.865C312.286 105.098 311.842 102.566 311.51 101.687L311.518 101.704ZM322.968 93.4502C319.336 86.9527 311.962 82.4419 304.595 81.342C304.485 82.4419 304.485 83.4311 304.263 84.4202C310.094 85.9636 314.383 88.3852 319.669 93.4417C314.715 89.8092 309.549 87.3876 303.82 86.731C303.709 87.2852 303.487 87.7201 303.376 88.2744C303.487 88.3852 303.709 88.4961 303.93 88.6069C305.252 89.3744 306.573 90.4743 307.784 91.6851C309.762 92.3417 311.962 93.3394 314.281 94.4394L321.766 98.0719L324.077 98.4044L324.187 98.2935C324.742 97.1936 323.531 94.3285 322.977 93.4502H322.968ZM302.72 70.0096C311.629 71.1096 321.203 73.1987 330.343 75.1855C330.897 75.2964 339.806 77.3854 340.139 76.618C340.139 76.618 340.25 76.3963 340.139 76.3963L339.806 75.7397C336.729 71.5615 325.944 67.0423 321.868 65.6182C320.99 65.1748 320.001 64.8508 319.004 64.6291C314.928 63.8617 310.862 63.1966 306.897 62.6509C304.476 62.3183 301.398 61.8834 297.988 61.5509C298.645 62.3183 299.199 62.9834 299.642 63.8617C301.407 64.0834 302.72 64.3051 303.717 64.5183C309.881 65.5074 315.824 67.1616 320.223 68.5941C324.733 69.9158 327.598 71.1267 327.598 71.1267C320.777 68.9267 310.435 66.6159 300.861 65.8399C301.629 67.1616 302.294 68.5942 302.728 70.0182L302.72 70.0096ZM266.622 72.8662L266.401 73.3096C266.511 73.0879 266.511 72.977 266.622 72.8662ZM331.443 87.3961C330.999 84.531 326.822 80.6854 324.622 78.9203C321.758 76.8312 317.247 74.5204 314.17 73.6336C310.981 72.977 307.895 72.3119 305.039 71.8685L303.274 71.536C303.606 72.6359 303.828 73.6251 304.041 74.725C311.305 75.825 318.236 78.5792 324.511 82.6466C324.733 82.7574 324.844 82.8683 324.844 82.8683C318.569 79.4575 311.527 77.5816 304.374 77.1467C304.595 78.3575 304.595 79.4575 304.595 80.5575C306.028 80.5575 307.673 80.7792 309.438 81.214C310.981 81.6574 312.516 82.2032 314.17 82.8683C315.713 83.3117 317.247 83.7466 318.901 84.3008C320.445 84.8551 321.979 85.4008 323.633 86.0659C324.844 86.5093 330.786 88.931 331.443 88.155V87.9333C331.554 87.8224 331.554 87.6007 331.443 87.379V87.3961ZM356.303 88.0612C359.381 88.7178 362.689 89.272 365.989 90.0395C367.199 90.2612 368.41 90.5937 369.62 90.9177L364.667 87.7287C357.403 86.8504 349.261 85.307 344.086 83.6528C339.909 82.3311 333.301 80.5745 327.137 77.9312C336.047 83.107 344.743 85.7419 356.295 88.0527L356.303 88.0612ZM353.993 97.5261C358.281 97.7478 364.778 97.5261 369.177 96.3153C369.288 96.2045 372.477 95.3262 372.477 94.7719V94.5502C371.82 93.5611 366.645 92.2394 365.324 92.0177C351.018 88.8286 341.332 87.2853 329.448 79.6877L325.372 77.1552C328.339 79.1335 331.093 81.666 332.747 84.8551C332.858 84.9659 332.858 85.0768 332.969 85.1876C335.39 86.731 338.255 88.2658 341.443 89.4767C348.485 92.2309 354.76 93.22 361.137 93.9874C351.896 93.6549 342.765 92.5549 333.514 88.155C333.293 90.1333 331.536 90.4658 329.882 90.2441C331.536 91.2332 333.404 92.2224 335.492 93.2115C340.667 95.5223 347.155 97.0657 353.976 97.5005L353.993 97.5261ZM390.534 103.683L382.281 100.604C378.871 99.5044 376.006 98.1827 373.585 96.9719L370.064 98.2935C377.106 102.369 387.226 106.769 394.49 108.091C386.126 107.434 374.241 103.248 366.432 99.2827H364.778C363.678 99.3935 362.467 99.5044 361.257 99.5044C364.556 102.148 368.521 104.459 372.698 106.326C380.184 109.737 393.279 113.702 401.421 110.291C402.299 109.958 404.286 108.748 404.064 108.313C404.064 108.202 403.953 108.091 403.953 108.091L398.011 106.224C395.479 105.456 392.947 104.569 390.525 103.691L390.534 103.683ZM405.053 98.5153C397.457 98.0718 382.273 96.2044 374.796 93.3394C375.563 94.2177 375.563 95.2068 374.796 96.0936L386.459 100.272C390.201 101.039 394.379 101.704 398.676 101.926C402.529 102.148 408.361 102.037 412.215 100.937C412.871 100.715 415.182 99.8369 415.079 99.2827C415.19 99.2827 415.079 99.1718 415.079 99.1718C414.636 98.5152 411.78 97.4068 410.902 97.1936C405.292 95.3262 391.318 92.1286 385.589 90.696L376.782 88.3852L370.396 88.1635C372.374 88.6069 371.718 88.7178 373.917 89.9286C381.514 93.8936 397.022 97.3044 405.062 98.5153H405.053ZM418.259 87.8395C411.55 89.0503 405.386 89.6046 397.354 89.272C392.401 89.0503 387.558 88.3937 383.713 87.5069C382.946 87.7286 382.059 87.9504 381.292 87.9504C380.525 88.0612 379.749 88.172 378.982 88.2829L400.986 92.4611C402.197 92.7937 403.518 93.0154 404.84 93.3394C407.04 93.2285 409.461 93.1177 411.771 92.7851C416.392 92.0177 422.991 90.4743 426.955 87.7201C427.51 87.2767 429.82 85.4093 429.488 84.9659C429.598 84.9659 429.377 84.8551 429.377 84.8551L424.312 84.6334L416.938 84.9659C407.918 84.8551 401.199 84.7442 392.179 83.5334C391.412 84.6334 389.758 85.6225 388.547 86.0659C398.667 88.3767 408.685 88.7092 418.259 87.831V87.8395ZM381.07 75.0746C387.345 77.4963 393.722 78.5963 401.975 78.818C410.117 79.0397 420.902 77.718 428.166 75.2963C428.166 75.2963 427.399 75.6289 425.966 76.0638C414.849 79.6963 401.43 81.5637 389.102 79.8071C390.423 80.1396 392.734 80.6854 392.623 82.4505L412.206 83.0047H415.071C416.938 82.6722 418.813 82.2373 420.791 81.683C427.066 80.0288 433.776 76.9506 438.84 72.8747C439.607 72.2181 442.029 69.5748 441.705 69.2422C441.705 69.1314 441.594 69.0205 441.594 69.1314C441.483 69.0205 441.151 69.0205 440.716 69.1314L435.328 70.5639C423.665 74.0855 409.137 75.6289 397.917 75.1855H397.15C391.318 75.2964 385.487 75.0746 379.766 74.5289C380.209 74.7506 380.644 74.8615 381.087 75.0832L381.07 75.0746ZM107.176 82.8853C118.395 82.4419 129.18 79.8071 140.741 77.0529C140.298 80.0203 144.706 79.142 146.351 78.9203C136.009 82.3311 121.925 86.2961 109.819 86.407C109.929 86.1853 110.04 86.1853 110.04 86.1853C110.04 86.1853 109.929 86.1853 109.708 86.407C108.275 86.407 106.741 86.2961 105.198 86.0744L97.9338 84.6419C97.7122 84.6419 94.4127 83.2094 94.5236 82.6636L94.6344 82.4419C94.7452 82.4419 94.9669 82.3311 95.2909 82.1094L106.076 80.0203C110.253 79.2528 123.57 74.6312 131.056 72.6445C136.666 71.2119 142.063 71.1011 145.473 70.4445C146.351 70.3337 147.127 70.1119 147.783 70.0011C146.462 70.8794 145.251 71.7662 143.93 72.7553C143.597 73.0879 143.162 73.5227 142.83 73.8553C138.865 75.0661 134.023 76.6095 129.189 78.0335C120.936 80.4552 114.439 81.9985 107.184 82.8768L107.176 82.8853ZM140.085 139.453L142.284 135.488C144.595 131.634 146.573 125.58 148.67 121.291L152.634 120.412C150.102 126.023 149.224 130.321 145.703 135.266L150.656 128.445C150.767 130.21 152.421 130.867 153.845 130.867C151.535 134.721 147.681 139.777 142.625 140.221C141.858 140.331 140.204 140.11 140.093 139.564V139.453H140.085ZM126.546 134.832C131.721 130.867 133.588 125.81 136.666 120.08L139.965 121.402C137.766 125.58 135.234 130.645 132.267 133.288C135.788 130.867 138.976 125.691 141.73 121.623H146.351C144.697 124.267 141.952 129.11 138.652 132.632C136.009 135.386 131.832 138.242 127.646 137.697C126.768 137.586 125.003 136.929 125.003 136.375V136.264C125.114 136.153 125.224 135.932 125.335 135.821C125.668 135.488 126.103 135.053 126.546 134.832ZM117.526 128.232C123.468 124.378 130.289 115.356 135.464 110.18C136.564 110.291 137.663 110.18 138.763 110.18C133.699 116.78 127.978 125.256 120.825 129.443C126.324 127.021 131.388 122.288 135.899 117.556V118.767L129.734 128.675C128.856 129.332 127.97 129.886 127.092 130.44C124.014 132.205 119.282 133.962 115.65 132.862C114.772 132.64 113.118 131.762 113.229 131.208C113.229 131.208 113.34 130.986 113.34 131.097L117.517 128.232H117.526ZM105.752 120.856C112.138 116.567 118.08 112.269 125.233 109.08L126.444 108.858C127.765 109.302 129.087 109.626 130.408 109.848L126.887 112.048C121.277 114.691 114.124 119.423 109.938 121.512L124.79 114.913L130.289 112.491C131.832 111.724 133.256 110.948 134.364 110.18H134.696C133.153 111.502 131.286 113.148 129.197 115.134C127.987 116.345 126.554 117.778 125.122 119.099C122.479 120.31 119.734 121.632 116.537 122.954C113.237 124.164 108.062 125.819 104.32 125.486C103.663 125.486 101.455 125.043 101.455 124.497V124.275C101.455 124.164 101.566 124.054 101.787 123.832L105.752 120.864V120.856ZM117.85 106.215C112.351 110.504 105.632 114.358 99.2553 116.447L111.473 112.593C114.005 111.493 121.047 109.404 124.346 107.972V108.083C122.147 108.85 120.169 109.839 118.071 110.837C115.872 112.048 113.561 113.369 111.473 114.691L104.32 119.202C102.342 119.645 100.142 119.969 97.9338 119.858C96.7232 119.858 95.6234 119.637 94.5236 119.304L92.324 117.871C92.324 117.871 92.324 117.65 92.4348 117.65L95.0778 115.561L103.552 110.939C106.63 109.95 109.495 108.628 111.916 107.417C116.426 105.107 120.612 102.028 123.136 99.4958C124.9 99.6067 126.657 99.6067 128.422 99.4958C125.779 101.15 118.626 105.661 117.858 106.207L117.85 106.215ZM137.22 108.304C134.142 108.304 130.289 107.861 127.313 106.872C126.759 106.761 124.559 105.883 124.559 105.328C124.559 105.328 124.559 105.107 124.559 105.217C124.67 105.107 124.781 104.885 125.003 104.774C128.635 101.807 140.076 101.474 148.883 95.8634L157.579 89.3658L163.854 86.8333L160.887 90.1333C160.887 90.1333 158.355 92.3332 157.144 93.6549C155.056 95.744 151.969 98.0548 148.559 100.042C143.827 102.907 137.552 104.22 133.486 104.663C133.486 104.663 135.575 104.663 138.55 104.331C146.359 103.563 151.867 100.92 157.92 95.9657C157.699 97.1765 157.699 98.609 158.909 99.5982C153.078 104.987 146.368 108.074 137.561 108.296V108.185L137.229 108.296L137.22 108.304ZM153.836 117.991C150.094 119.423 144.927 119.969 140.963 119.423C140.409 119.312 137.996 118.869 137.885 118.323C137.885 118.323 137.885 118.102 137.885 118.213C138.217 116.234 147.016 112.491 148.781 111.502C154.501 108.534 156.479 105.013 160.887 100.383C162.541 100.383 164.741 99.2827 166.062 98.6176L158.253 108.526C154.953 112.491 150.656 114.802 146.036 116.123L150.546 114.913C158.031 112.602 161.765 106.88 166.608 102.148C168.04 100.715 171.34 97.3044 173.207 95.3262L170.675 100.715C170.018 103.026 170.896 101.815 169.242 103.248C167.81 104.569 165.721 106.659 163.632 109.08L157.912 115.902L153.836 117.991ZM170.01 117.658C166.489 121.836 160.768 127.123 155.158 128.556H152.515C152.515 128.556 152.404 128.445 152.515 128.445C151.961 126.68 157.247 119.747 158.125 118.647C158.568 118.093 163.735 111.715 164.945 110.061C167.256 106.872 169.123 105.107 170.231 103.35C170.231 104.339 170.12 105.217 170.785 106.215C166.71 113.037 163.3 118.102 158.023 123.712C163.965 118.869 168.04 114.026 172.985 107.758L173.974 107.869C173.531 108.526 173.096 109.302 172.763 109.958C171.664 112.269 170.785 114.913 170.01 117.556V117.667V117.658ZM169.242 121.845C168.91 124.156 168.475 127.788 169.353 130.099C166.489 134.832 161.433 139.564 155.712 140.442L153.402 140.11L153.291 139.999L153.734 138.234L157.912 131.523C158.568 130.756 159.012 129.869 159.566 128.991C161.654 128.001 163.419 126.569 165.176 125.136L165.508 124.804C163.743 129.536 161.331 133.058 158.133 136.247C163.632 132.171 166.165 128.104 169.251 121.828L169.242 121.845ZM184.094 109.515C182.116 113.915 179.141 123.38 175.841 127.345C174.741 128.777 171.766 131.745 170.888 128.888V128.667C170.334 122.945 172.431 112.926 175.176 107.648C176.941 107.093 179.03 105.559 180.351 104.348C178.586 106.769 177.384 110.291 176.498 113.48C176.054 115.023 175.619 116.558 175.287 117.991L173.42 125.691L177.93 114.026C179.473 110.504 181.229 107.093 183.872 105.115L184.094 109.515ZM183.105 123.823V126.577C182.227 128.445 181.238 130.21 180.027 131.967C178.373 134.388 175.074 137.688 171.996 138.566C171.442 138.788 169.686 139.223 169.353 138.677C169.353 138.677 169.242 138.566 169.353 138.566L169.686 136.588L171.553 132.299C173.207 132.742 174.741 131.532 175.841 130.534L174.187 133.399L175.619 131.532L177.597 128.453C178.808 126.688 179.797 124.821 180.564 123.064C181.553 120.754 182.653 118.775 183.429 117.01L183.096 123.832L183.105 123.823ZM189.269 112.602C187.948 117.556 188.502 122.834 187.948 127.899C189.602 121.299 188.937 115.569 193.123 109.413C193.012 110.18 192.901 111.067 192.901 111.834C192.901 114.478 193.123 117.121 193.455 119.645C193.233 121.078 193.012 122.51 192.577 124.156C192.023 127.021 190.71 130.756 188.502 132.964C187.948 133.621 185.97 135.053 185.313 134.618L185.202 134.508L185.091 129.553C185.313 123.943 183.992 118.434 185.97 112.278C186.959 113.045 188.502 113.156 189.269 112.61V112.602ZM203.353 117.991C203.243 121.18 202.475 126.577 199.832 128.888C199.389 129.332 198.178 130.21 197.633 129.988L197.522 129.877L196.422 125.699C195.544 120.088 193.668 114.034 194.112 107.98L195.101 105.78L195.322 105.337C195.876 105.669 196.422 105.993 196.976 106.326C196.976 107.204 197.087 107.98 197.198 109.08C197.752 114.58 198.963 118.213 198.963 124.045L199.406 113.813C200.395 115.023 201.938 115.578 203.37 115.023V117.991H203.353ZM204.897 114.034C205.553 113.48 205.996 112.602 206.44 111.724C208.307 112.602 210.072 113.489 211.939 114.367C212.271 116.456 212.271 119.321 211.717 120.532C211.385 121.086 206.985 118.988 205.996 118.332C205.664 118.221 205.442 117.999 205.118 117.778C205.118 116.456 205.007 115.245 204.897 114.034ZM200.821 112.713C199.943 111.391 199.278 109.634 198.954 107.648C200.821 108.748 202.586 109.737 204.453 110.726L204.675 110.837C204.121 111.937 203.021 113.915 202.143 113.915H202.032L200.821 112.704V112.713ZM186.08 109.737C185.313 106.769 185.859 102.361 187.18 98.5153C188.058 99.5044 188.945 100.383 189.934 101.269C189.38 103.035 188.945 104.791 188.502 106.445L190.812 101.935C191.579 102.591 192.355 103.145 193.123 103.802L193.566 104.024L193.233 104.467L190.48 109.2C190.036 109.856 187.726 111.732 186.959 111.4L186.848 111.289L186.08 109.745V109.737ZM172.431 101.704C173.752 97.0827 176.941 92.3503 181.127 89.4852C181.46 90.4743 182.005 91.4635 182.559 92.4526V92.5634C179.916 94.8742 177.717 97.8502 175.961 100.707C175.628 101.15 175.517 101.474 175.517 101.474C177.828 98.7199 180.471 95.9742 183.548 94.0983C183.992 94.7549 184.426 95.3091 184.981 95.9657C185.313 96.4091 185.637 96.7331 185.97 97.1765C184.426 98.2765 182.67 99.8199 180.581 101.576L175.739 105.209C175.082 105.541 172.985 106.531 172.439 105.976L172.329 105.865C171.672 105.098 172.218 102.566 172.439 101.687L172.431 101.704ZM161.1 93.4502C164.732 86.9527 172.107 82.4419 179.473 81.342C179.473 82.4419 179.584 83.4311 179.806 84.4202C173.974 85.9636 169.686 88.3852 164.4 93.4417C169.353 89.8092 174.52 87.3876 180.249 86.731C180.36 87.2852 180.471 87.7201 180.692 88.2744C180.471 88.3852 180.36 88.4961 180.138 88.6069C178.817 89.3744 177.495 90.4743 176.284 91.6851C174.307 92.3417 172.107 93.3394 169.788 94.4394L162.302 98.0719L159.992 98.4044L159.881 98.2935C159.225 97.1936 160.538 94.3285 161.092 93.4502H161.1ZM181.238 70.0096C172.431 71.1096 162.865 73.1987 153.726 75.1855C153.171 75.2964 144.262 77.3854 143.93 76.618C143.819 76.618 143.819 76.3963 143.93 76.3963L144.262 75.7397C147.34 71.5615 158.125 67.0423 162.2 65.6182C163.078 65.1748 164.067 64.8508 165.065 64.6291C169.14 63.8617 173.096 63.1966 177.06 62.6509C179.592 62.3183 182.67 61.8834 186.08 61.5509C185.424 62.3183 184.87 62.9834 184.316 63.8617C182.662 64.0834 181.349 64.3051 180.24 64.5183C174.187 65.5074 168.245 67.1616 163.735 68.5941C159.336 69.9158 156.471 71.1267 156.471 71.1267C163.291 68.9267 173.633 66.6159 183.096 65.8399C182.44 67.1616 181.775 68.5942 181.229 70.0182L181.238 70.0096ZM217.438 72.8662L217.659 73.3096C217.549 73.0879 217.549 72.977 217.438 72.8662ZM152.626 87.3961C153.069 84.531 157.247 80.6854 159.446 78.9203C162.311 76.8312 166.821 74.5204 169.899 73.6336C173.087 72.977 176.063 72.3119 179.03 71.8685L180.795 71.536C180.462 72.6359 180.24 73.6251 180.027 74.725C172.763 75.825 165.832 78.5792 159.557 82.6466C159.335 82.7574 159.225 82.8683 159.225 82.8683C165.5 79.4575 172.542 77.5816 179.584 77.1467C179.473 78.3575 179.473 79.4575 179.473 80.5575C178.041 80.5575 176.395 80.7792 174.631 81.214C173.087 81.6574 171.553 82.2032 169.899 82.8683C168.356 83.3117 166.821 83.7466 165.167 84.3008C163.624 84.8551 162.089 85.4008 160.435 86.0659C159.225 86.5093 153.282 88.931 152.626 88.155C152.626 88.155 152.515 87.9333 152.626 87.9333C152.515 87.8224 152.515 87.6007 152.626 87.379V87.3961ZM127.757 88.0612C124.679 88.7178 121.371 89.272 118.071 90.0395C116.861 90.2612 115.65 90.5937 114.439 90.9177L119.393 87.7287C126.657 86.8504 134.799 85.307 139.863 83.6528C144.151 82.3311 150.759 80.5745 156.923 77.9312C148.013 83.107 139.317 85.7419 127.765 88.0527L127.757 88.0612ZM130.067 97.5261C125.779 97.7478 119.171 97.5261 114.883 96.3153C114.661 96.2045 111.583 95.3262 111.583 94.7719V94.5502C112.24 93.5611 117.415 92.2394 118.736 92.0177C133.042 88.8286 142.617 87.2853 154.612 79.6877L158.577 77.1552C155.712 79.1335 152.967 81.666 151.313 84.8551C151.202 84.9659 151.202 85.0768 151.091 85.1876C148.67 86.731 145.703 88.2658 142.617 89.4767C135.575 92.2309 129.3 93.22 122.922 93.9874C132.164 93.6549 141.295 92.5549 150.546 88.155C150.767 90.1333 152.524 90.4658 154.177 90.2441C152.524 91.2332 150.656 92.2224 148.568 93.2115C143.393 95.5223 136.905 97.0657 130.084 97.5005L130.067 97.5261ZM93.5346 103.683L101.787 100.604C105.198 99.5044 108.062 98.1827 110.373 96.9719L114.005 98.2935C106.962 102.369 96.8426 106.769 89.5787 108.091C97.9424 107.434 109.827 103.248 117.637 99.2827H119.291C120.39 99.3935 121.601 99.5044 122.812 99.5044C119.512 102.148 115.548 104.459 111.37 106.326C103.885 109.737 90.687 113.702 82.5365 110.291C81.7692 109.958 79.7827 108.748 80.0044 108.313C80.0044 108.202 80.1152 108.091 80.1152 108.091L86.0576 106.224C88.5897 105.456 91.1218 104.569 93.5431 103.691L93.5346 103.683ZM79.0069 98.5153C86.6033 98.0718 101.787 96.2044 109.264 93.3394C108.497 94.2177 108.497 95.2068 109.264 96.0936L97.6013 100.272C93.8586 101.039 89.681 101.704 85.2733 101.926C81.5305 102.148 75.5881 102.037 71.8454 100.937C71.1889 100.715 68.8784 99.8369 68.9807 99.2827C68.8699 99.2827 68.9807 99.1718 68.9807 99.1718C69.4241 98.5152 72.2802 97.4068 73.1583 97.1936C78.7682 95.3262 92.7417 92.1286 98.4709 90.696L107.167 88.3852L113.664 88.1635C111.686 88.6069 112.342 88.7178 110.143 89.9286C102.546 93.8936 87.0381 97.3044 78.9984 98.5153H79.0069ZM65.8092 87.8395C72.5189 89.0503 78.5721 89.6046 86.7141 89.272C91.6675 89.0503 96.5101 88.3937 100.355 87.5069C101.122 87.7286 102.009 87.9504 102.776 87.9504C103.544 88.0612 104.32 88.172 105.087 88.2829L83.0822 92.4611C81.7607 92.7937 80.55 93.0154 79.2286 93.3394C77.0289 93.2285 74.6077 93.1177 72.1864 92.7851C67.6763 92.0177 61.069 90.4743 57.1131 87.7201C56.5589 87.2767 54.2484 85.4093 54.4701 84.9659L54.581 84.8551L59.756 84.6334L67.1307 84.9659C76.1508 84.8551 82.7582 84.7442 91.8891 83.5334C92.6565 84.6334 94.3104 85.6225 95.5211 86.0659C85.4011 88.3767 75.3835 88.7092 65.8092 87.831V87.8395ZM102.998 75.0746C96.7232 77.4963 90.346 78.5963 82.0932 78.818C73.9512 79.0397 63.1663 77.718 55.9024 75.2963C55.9024 75.2963 56.6697 75.6289 57.9912 76.0638C69.211 79.6963 82.6388 81.5637 94.9669 79.8071C93.6454 80.1396 91.335 80.6854 91.4458 82.4505L71.8624 83.0047H68.9978C67.1307 82.6722 65.255 82.2373 63.2771 81.683C57.0022 80.0288 50.2926 76.9506 45.2283 72.8747C44.461 72.2181 42.0397 69.5748 42.3637 69.2422C42.2529 69.1314 42.4745 69.0205 42.4745 69.1314C42.5854 69.0205 42.9179 69.0205 43.2418 69.1314L48.7409 70.5639C60.2931 74.0855 74.9317 75.6289 86.1514 75.1855H86.9187C92.7502 75.2964 98.5818 75.0746 104.302 74.5289C103.859 74.7506 103.424 74.8615 102.981 75.0832L102.998 75.0746ZM206.329 106.983C209.961 108.85 216.67 111.937 223.389 115.015C224.267 114.461 225.153 114.026 226.032 113.582C229.664 111.604 233.517 109.839 237.362 108.296L237.251 108.185C240.44 106.752 243.961 105.32 247.371 103.785L248.582 51.3953C260.356 49.3062 265.258 41.8195 269.214 32.022C260.85 38.8436 254.303 43.0303 241.975 43.0303C229.646 43.0303 223.21 38.8521 214.846 32.022C218.81 41.8195 223.704 49.2976 235.478 51.3953L236.799 108.074C228.436 104.109 217.54 98.609 212.595 96.2982C205.221 92.8875 193.225 84.4117 198.954 74.401H191.469L198.622 71.9794C198.843 71.8685 199.176 71.7576 199.389 71.6468C201.699 70.8794 204.564 70.436 207.753 69.9926L212.595 69.336C214.36 69.1143 216.116 68.8926 218.094 68.5686L218.427 68.4577C220.405 68.1252 221.726 66.2578 221.394 64.2795C221.283 63.6229 220.84 62.9578 220.405 62.4121C218.64 60.7579 216.662 59.5471 214.462 58.5579C212.263 57.6796 209.952 57.2362 207.642 57.0145C205.221 56.7928 202.799 56.9037 200.378 57.4579C197.957 58.0122 195.425 59.0013 193.225 60.5362C192.014 61.4144 190.804 62.4036 189.704 63.6144C183.54 70.436 181.451 82.5442 186.072 90.3549C186.728 91.4549 187.393 92.4441 188.161 93.4332C190.36 96.1874 192.892 98.4982 195.535 100.366C199.056 103.009 202.688 105.098 206.32 106.965L206.329 106.983ZM233.466 183.981C233.807 183.776 234.148 183.572 234.498 183.367C235.597 182.71 236.697 182.045 237.908 181.5C239.229 180.732 240.662 179.956 241.983 179.3C245.837 177.321 249.793 175.335 253.757 173.024C254.311 172.802 254.857 172.47 255.3 172.256C256.067 171.702 256.843 171.267 257.611 170.824C260.364 169.059 263.22 167.081 265.863 164.659C269.274 161.581 272.462 157.616 274.227 152.772C275.105 150.351 275.659 147.818 275.881 145.286C275.881 144.629 275.992 143.964 275.992 143.418C275.992 142.762 275.881 142.097 275.881 141.44C275.77 140.118 275.549 138.686 275.225 137.364C274.568 134.832 273.46 132.299 272.036 130.099C270.604 128.01 268.958 126.134 267.193 124.599C264.994 122.51 262.794 120.856 260.484 119.423C255.752 121.512 251.02 123.602 246.399 125.81H246.51C244.2 127.021 240.789 128.999 237.379 131.097L238.147 164.113C240.9 162.459 243.432 160.702 246.067 158.937L246.834 125.921H246.723C247.934 126.577 249.034 127.243 250.244 127.899C253.322 129.664 256.298 131.642 258.497 133.842C259.597 134.942 260.586 136.042 261.362 137.142C262.129 138.242 262.573 139.453 262.905 140.553C263.561 142.864 263.459 145.942 262.573 148.475C261.694 151.118 260.04 153.54 257.619 155.851C255.309 158.161 252.333 160.25 249.255 162.237C248.156 162.894 247.056 163.559 245.956 164.215C244.635 164.872 243.424 165.648 241.992 166.415C238.249 168.505 234.293 170.705 230.218 173.015C229.774 173.348 229.34 173.672 228.785 173.894C228.018 174.448 227.353 174.883 226.586 175.437C223.832 177.202 221.087 179.291 218.555 181.824C218.12 182.241 217.694 182.676 217.267 183.128C222.988 183.58 228.427 183.879 233.483 183.972L233.466 183.981ZM266.801 183.111C266.383 182.668 265.957 182.233 265.531 181.824C262.999 179.291 260.245 177.202 257.5 175.437C257.389 175.437 257.389 175.548 257.278 175.548C253.646 177.637 249.903 179.513 246.161 181.491C247.371 182.045 248.471 182.702 249.571 183.359C249.92 183.563 250.261 183.768 250.603 183.972C255.854 183.879 261.268 183.572 266.801 183.111ZM260.68 115.023C267.39 111.945 274.108 108.858 277.74 106.991C281.372 105.124 285.003 103.026 288.525 100.391C291.057 98.5238 293.7 96.213 295.899 93.4588C296.556 92.4696 297.332 91.4805 297.877 90.3805C302.498 82.5698 300.52 70.4616 294.245 63.64C293.256 62.4292 292.046 61.44 290.835 60.5617C288.525 59.0184 286.103 58.0292 283.682 57.4835C281.261 56.9293 278.729 56.827 276.418 57.0401C273.997 57.2618 271.797 57.6967 269.598 58.5835C267.398 59.5726 265.309 60.7835 263.655 62.4377C263.101 62.9919 262.777 63.6485 262.666 64.3051C262.334 66.2833 263.655 68.1593 265.531 68.4833L265.974 68.5941C267.952 68.9267 269.717 69.1484 271.473 69.3616L276.316 70.0182C279.394 70.4616 282.369 70.8964 284.68 71.6724C284.901 71.7832 285.234 71.8941 285.447 72.0049L292.6 74.4266H285.114C290.835 84.4458 278.839 92.913 271.473 96.3238C266.409 98.7455 255.3 104.245 246.715 108.321C245.061 109.089 243.415 109.865 241.983 110.521C240.883 110.965 239.894 111.399 239.016 111.843C235.273 113.275 231.531 115.032 227.796 117.019C226.364 117.786 225.043 118.562 223.619 119.44C221.308 120.873 219.109 122.519 216.909 124.616C215.144 126.16 213.499 128.027 212.067 130.116C210.634 132.316 209.534 134.849 208.878 137.381C208.546 138.703 208.324 140.135 208.222 141.457C208.111 142.114 208.111 142.779 208.111 143.435C208.111 143.99 208.222 144.646 208.222 145.303C208.443 147.835 208.989 150.368 209.876 152.789C211.64 157.633 214.829 161.598 218.239 164.676C220.882 167.098 223.627 169.076 226.492 170.841C226.603 170.841 226.714 170.73 226.825 170.73C230.456 168.419 234.31 166.33 238.155 164.233C237.055 163.576 235.955 162.911 234.856 162.254C231.667 160.276 228.802 158.178 226.381 155.868C224.071 153.557 222.306 151.135 221.539 148.492C220.66 145.959 220.439 142.881 221.095 140.57C221.428 139.47 221.973 138.259 222.749 137.159C223.517 136.059 224.403 134.959 225.614 133.86C227.813 131.66 230.789 129.681 233.867 127.916C235.077 127.149 236.399 126.484 237.72 125.827C239.153 125.06 240.585 124.284 242.009 123.627C242.665 123.295 243.219 122.971 243.876 122.749C246.63 121.427 251.25 119.338 256.306 117.027C257.738 116.371 259.273 115.706 260.705 115.049L260.68 115.023ZM283.682 60.8773C278.294 62.4206 277.74 64.1772 274.551 60.2207C277.416 59.4532 280.937 59.999 283.682 60.8773ZM209.517 60.2122C206.329 64.1772 205.775 62.4121 200.386 60.8687C203.14 59.9904 206.551 59.4362 209.517 60.2122Z" fill="#D49446"/>
<path d="M250.658 7.20588L243.386 0H255.723L250.658 7.20588ZM233.418 7.1291L240.682 0H228.354L233.418 7.1291ZM242.038 34.8355L249.327 10.2673H234.775L242.038 34.8355ZM232.794 10.2758H220.492L240.429 36.0975L232.794 10.2758ZM234.876 8.35709H249.116L242.03 1.33031L234.867 8.35709H234.876ZM251.299 10.2758L243.639 36.0975L263.576 10.2758H251.299ZM220.526 8.35709H231.96L226.567 0.767483L220.517 8.35709H220.526ZM252.167 8.35709H263.551L257.509 0.767483L252.175 8.35709H252.167Z" fill="#D49446"/>
<path d="M108.319 316.136C108.191 316.136 108.132 316.06 108.132 315.898L108.225 283.451C108.225 283.323 108.285 283.264 108.413 283.264H114.174C114.302 283.264 114.413 283.323 114.507 283.451L118.802 289.681L123.098 283.451C123.192 283.323 123.302 283.264 123.43 283.264H129.243C129.371 283.264 129.43 283.323 129.43 283.451L129.524 315.898C129.524 316.051 129.456 316.136 129.337 316.136H124.001C123.873 316.136 123.814 316.06 123.814 315.898L123.763 291.812L118.802 298.988L113.893 291.812L113.842 315.898C113.842 316.051 113.774 316.136 113.654 316.136H108.319Z" fill="#232430"/>
<path d="M142.18 316.136C142.053 316.136 141.993 316.06 141.993 315.898L142.044 283.451C142.044 283.323 142.104 283.264 142.232 283.264H157.394C157.522 283.264 157.581 283.34 157.581 283.502V288.795C157.581 288.923 157.522 288.983 157.394 288.983H147.712V296.346H157.394C157.522 296.346 157.581 296.414 157.581 296.534L157.632 301.869C157.632 301.997 157.573 302.057 157.445 302.057H147.72V310.324H157.445C157.573 310.324 157.632 310.401 157.632 310.563V315.949C157.632 316.077 157.573 316.136 157.445 316.136H142.189H142.18Z" fill="#232430"/>
<path d="M170.562 316.136C170.409 316.136 170.323 316.06 170.323 315.898L170.417 283.451C170.417 283.323 170.477 283.264 170.605 283.264L179.434 283.213C181.165 283.178 182.75 283.588 184.182 284.44C185.614 285.292 186.756 286.434 187.608 287.866C188.46 289.298 188.886 290.883 188.886 292.613V306.165C188.886 307.989 188.443 309.651 187.565 311.151C186.687 312.651 185.503 313.835 184.02 314.713C182.537 315.591 180.875 316.051 179.017 316.085L170.562 316.136ZM176.093 310.324H179.025C180.193 310.324 181.173 309.915 181.974 309.097C182.775 308.278 183.176 307.298 183.176 306.173V292.571C183.176 291.565 182.809 290.687 182.068 289.946C181.327 289.204 180.457 288.855 179.443 288.88L176.136 288.931L176.085 310.324H176.093Z" fill="#232430"/>
<path d="M224.64 316.605C222.944 316.605 221.393 316.171 219.987 315.31C218.589 314.44 217.464 313.298 216.628 311.867C215.793 310.435 215.376 308.849 215.376 307.119V304.946C215.376 304.793 215.452 304.707 215.614 304.707H220.898C221.026 304.707 221.086 304.784 221.086 304.946V307.119C221.086 308.159 221.435 309.045 222.126 309.787C222.816 310.528 223.651 310.895 224.631 310.895C225.612 310.895 226.438 310.52 227.137 309.761C227.828 309.003 228.177 308.125 228.177 307.119C228.177 305.952 227.418 304.946 225.91 304.094C225.407 303.812 224.614 303.369 223.549 302.773C222.475 302.176 221.469 301.613 220.523 301.077C218.793 300.071 217.506 298.801 216.671 297.275C215.836 295.75 215.418 294.028 215.418 292.102C215.418 290.338 215.844 288.761 216.697 287.355C217.549 285.957 218.674 284.849 220.072 284.022C221.469 283.204 222.995 282.795 224.631 282.795C226.268 282.795 227.836 283.213 229.234 284.048C230.632 284.883 231.757 286 232.583 287.397C233.419 288.795 233.836 290.363 233.836 292.093V295.963C233.836 296.091 233.777 296.15 233.649 296.15H228.356C228.228 296.15 228.168 296.091 228.168 295.963L228.126 292.093C228.126 290.994 227.776 290.099 227.086 289.4C226.396 288.71 225.578 288.36 224.631 288.36C223.685 288.36 222.816 288.727 222.126 289.468C221.435 290.21 221.086 291.079 221.086 292.093C221.086 293.108 221.308 294.003 221.751 294.693C222.194 295.383 222.995 296.048 224.163 296.679C224.316 296.773 224.623 296.943 225.083 297.173C225.543 297.412 226.038 297.676 226.575 297.974C227.112 298.272 227.589 298.537 228.015 298.75C228.441 298.971 228.697 299.116 228.799 299.176C230.376 300.054 231.62 301.136 232.532 302.415C233.444 303.693 233.904 305.253 233.904 307.111C233.904 308.969 233.487 310.52 232.652 311.952C231.816 313.384 230.7 314.517 229.302 315.352C227.904 316.188 226.353 316.605 224.649 316.605H224.64Z" fill="#232430"/>
<path d="M254.393 316.605C252.723 316.605 251.18 316.171 249.765 315.31C248.351 314.449 247.226 313.29 246.39 311.841C245.555 310.392 245.137 308.807 245.137 307.068L245.231 283.451C245.231 283.323 245.291 283.264 245.419 283.264H250.711C250.839 283.264 250.899 283.323 250.899 283.451V307.068C250.899 308.142 251.24 309.045 251.913 309.787C252.586 310.528 253.413 310.895 254.393 310.895C255.373 310.895 256.243 310.528 256.925 309.787C257.598 309.045 257.939 308.142 257.939 307.068V283.451C257.939 283.323 257.998 283.264 258.126 283.264H263.41C263.538 283.264 263.598 283.323 263.598 283.451L263.692 307.068C263.692 308.832 263.274 310.435 262.439 311.884C261.604 313.332 260.487 314.483 259.081 315.327C257.683 316.179 256.115 316.605 254.385 316.605H254.393Z" fill="#232430"/>
<path d="M276.161 316.136C275.999 316.136 275.922 316.06 275.922 315.898L276.016 283.451C276.016 283.323 276.075 283.264 276.203 283.264H285.272C288.169 283.264 290.462 284.142 292.141 285.906C293.829 287.67 294.664 290.065 294.664 293.082C294.664 295.315 294.221 297.258 293.343 298.895C292.465 300.531 291.314 301.792 289.9 302.67C288.485 303.548 286.942 303.991 285.272 303.991H281.683V315.889C281.683 316.043 281.607 316.128 281.445 316.128H276.161V316.136ZM281.692 298.281H285.28C286.286 298.281 287.164 297.804 287.905 296.841C288.647 295.878 289.013 294.633 289.013 293.082C289.013 291.855 288.681 290.849 288.024 290.056C287.36 289.272 286.448 288.872 285.289 288.872L281.7 288.923V298.273L281.692 298.281Z" fill="#232430"/>
<path d="M306.247 316.136C306.093 316.136 306.008 316.06 306.008 315.898L306.102 283.451C306.102 283.323 306.161 283.264 306.289 283.264H315.358C318.255 283.264 320.548 284.142 322.227 285.906C323.915 287.67 324.75 290.065 324.75 293.082C324.75 295.315 324.307 297.258 323.429 298.895C322.542 300.531 321.4 301.792 319.985 302.67C318.571 303.548 317.028 303.991 315.358 303.991H311.769V315.889C311.769 316.043 311.693 316.128 311.531 316.128H306.238L306.247 316.136ZM311.769 298.281H315.358C316.363 298.281 317.241 297.804 317.983 296.841C318.724 295.878 319.091 294.633 319.091 293.082C319.091 291.855 318.758 290.849 318.102 290.056C317.437 289.272 316.525 288.872 315.366 288.872L311.778 288.923V298.273L311.769 298.281Z" fill="#232430"/>
<path d="M336.281 316.136C336.154 316.136 336.094 316.06 336.094 315.898L336.145 283.502C336.145 283.349 336.222 283.264 336.384 283.264H341.625C341.779 283.264 341.864 283.34 341.864 283.502L341.813 310.324H351.537C351.691 310.324 351.776 310.401 351.776 310.563V315.898C351.776 316.051 351.699 316.136 351.537 316.136H336.281Z" fill="#232430"/>
<path d="M363.913 316.136C363.819 316.136 363.768 316.077 363.768 315.949L363.819 302.534L357.487 283.451C357.453 283.323 357.504 283.264 357.631 283.264H362.873C363.027 283.264 363.12 283.323 363.154 283.451L366.649 296.159L370.194 283.451C370.228 283.323 370.305 283.264 370.433 283.264H375.726C375.853 283.264 375.896 283.323 375.871 283.451L369.495 302.346L369.538 315.949C369.538 316.077 369.478 316.136 369.35 316.136H363.921H363.913Z" fill="#232430"/>
<path fill-rule="evenodd" clip-rule="evenodd" d="M241.388 333.498L238.701 341.845C238.608 342.126 238.353 342.314 238.064 342.314L229.325 342.297C229.027 342.297 228.772 342.485 228.678 342.766C228.585 343.057 228.678 343.355 228.925 343.526L235.998 348.664C236.245 348.843 236.338 349.141 236.245 349.423L233.533 357.761C233.439 358.043 233.533 358.341 233.779 358.512C234.026 358.691 234.34 358.691 234.578 358.512L241.634 353.349C241.881 353.17 242.187 353.17 242.433 353.349L249.489 358.512C249.736 358.691 250.05 358.691 250.297 358.512C250.527 358.341 250.629 358.034 250.535 357.761L247.823 349.423C247.73 349.141 247.823 348.843 248.07 348.664L255.143 343.526C255.389 343.347 255.483 343.048 255.389 342.766C255.304 342.485 255.049 342.297 254.752 342.297L246.012 342.314C245.706 342.314 245.468 342.126 245.366 341.845L242.68 333.498C242.586 333.208 242.331 333.029 242.042 333.029C241.753 333.029 241.49 333.208 241.396 333.498H241.388Z" fill="#D49446"/>
<path fill-rule="evenodd" clip-rule="evenodd" d="M209.974 339.14L208.267 344.449C208.217 344.628 208.047 344.747 207.86 344.747H202.291C202.104 344.738 201.943 344.849 201.884 345.036C201.824 345.215 201.884 345.411 202.045 345.521L206.553 348.797C206.706 348.907 206.773 349.094 206.714 349.282L204.982 354.582C204.931 354.761 204.982 354.948 205.144 355.067C205.305 355.186 205.5 355.178 205.653 355.067L210.144 351.783C210.296 351.672 210.5 351.672 210.653 351.783L215.144 355.067C215.305 355.178 215.5 355.178 215.653 355.067C215.806 354.956 215.865 354.769 215.806 354.582L214.082 349.282C214.023 349.103 214.082 348.916 214.235 348.797L218.743 345.521C218.896 345.411 218.964 345.223 218.904 345.045C218.845 344.866 218.683 344.747 218.488 344.747H212.928C212.733 344.755 212.58 344.636 212.52 344.458L210.806 339.149C210.746 338.97 210.585 338.851 210.398 338.851C210.211 338.851 210.042 338.97 209.982 339.149L209.974 339.14ZM273.259 339.14L271.553 344.449C271.493 344.628 271.332 344.747 271.137 344.747H265.568C265.39 344.738 265.22 344.849 265.169 345.036C265.11 345.215 265.169 345.411 265.33 345.521L269.838 348.797C269.991 348.907 270.05 349.094 269.991 349.282L268.268 354.582C268.208 354.761 268.268 354.948 268.429 355.067C268.582 355.178 268.785 355.178 268.93 355.067L273.42 351.783C273.582 351.672 273.777 351.672 273.93 351.783L278.429 355.067C278.582 355.178 278.785 355.178 278.938 355.067C279.083 354.956 279.142 354.769 279.082 354.582L277.359 349.282C277.3 349.103 277.359 348.916 277.521 348.797L282.028 345.521C282.181 345.411 282.24 345.223 282.189 345.045C282.13 344.866 281.969 344.747 281.774 344.747H276.205C276.027 344.755 275.857 344.636 275.797 344.458L274.091 339.149C274.032 338.97 273.87 338.851 273.675 338.851C273.497 338.851 273.319 338.97 273.268 339.149L273.259 339.14Z" fill="#D49446"/>
<path d="M52.0592 150.681L60.4372 136.218C71.0397 137.803 81.5655 138.894 91.9719 139.448C92.3299 139.465 92.6623 139.21 92.7731 138.835C92.8839 138.46 92.7304 138.085 92.4151 137.94C74.679 129.519 57.6673 119.564 41.5675 108.306C41.363 108.161 41.1158 108.144 40.8601 108.272C40.613 108.391 40.434 108.612 40.3743 108.877C37.7152 121.124 35.4736 133.61 33.7179 146.233C22.9535 153.068 11.8482 159.528 0.401932 165.648C0.146245 165.784 0.00135453 166.023 0.00135453 166.304C-0.0156913 166.594 0.1292 166.849 0.376364 167.02C10.3567 174.017 20.6438 180.58 31.1781 186.691L52.0507 150.673L52.0592 150.681Z" fill="#D49446"/>
<path d="M483.591 165.622C472.128 159.52 461.022 153.076 450.241 146.258C448.468 133.636 446.218 121.15 443.533 108.911C443.474 108.647 443.303 108.425 443.056 108.306C442.8 108.186 442.553 108.195 442.349 108.34C426.308 119.598 409.339 129.536 391.646 137.948C391.331 138.093 391.186 138.46 391.305 138.843C391.416 139.218 391.748 139.474 392.098 139.457C402.478 138.911 412.962 137.837 423.53 136.261L431.925 150.716L452.815 186.725C463.366 180.597 473.645 174.017 483.625 167.011C483.872 166.841 484.008 166.585 484 166.295C484 166.014 483.855 165.776 483.599 165.639L483.591 165.622Z" fill="#D49446"/>
<path d="M61.5623 143.48C116.322 174.443 179.051 190.748 242.001 190.68V190.688C304.951 190.773 367.687 174.511 422.404 143.53L457.63 206.004C392.234 243.062 316.959 262.545 241.983 262.408C167.007 262.519 91.7588 242.976 26.3797 205.987L61.5623 143.48ZM257.98 204.009C254.997 204.137 253.505 204.18 250.522 204.248C250.343 204.248 250.258 204.342 250.258 204.512C250.496 215.362 250.727 226.203 250.966 237.053C250.991 238.536 250.497 239.789 249.474 240.828C248.443 241.877 247.139 242.405 245.579 242.413C244.071 242.422 242.784 241.919 241.744 240.897C240.696 239.874 240.192 238.621 240.192 237.147C240.235 226.306 240.286 215.455 240.329 204.606C240.329 204.435 240.235 204.342 240.064 204.342C237.082 204.325 235.59 204.307 232.607 204.231C232.428 204.231 232.335 204.316 232.335 204.487C232.011 215.319 231.696 226.169 231.363 237.01C231.303 239.396 231.891 241.604 233.144 243.624C234.397 245.644 236.127 247.272 238.351 248.482C240.576 249.692 243.014 250.289 245.647 250.272H245.656C248.383 250.255 250.855 249.615 253.028 248.388C255.201 247.161 256.889 245.515 258.116 243.47C259.343 241.433 259.88 239.192 259.778 236.763C259.267 225.93 258.756 215.097 258.253 204.256C258.253 204.086 258.15 204.009 257.98 204.009ZM198.371 201.853C198.149 201.827 198.03 201.913 198.005 202.134C196.275 216.921 194.553 231.7 192.814 246.479C192.789 246.7 192.865 246.82 193.069 246.837V246.828C202.64 247.919 207.447 248.346 217.053 248.9C217.3 248.925 217.437 248.822 217.445 248.601C217.607 245.669 217.7 244.195 217.862 241.263C217.871 241.041 217.76 240.93 217.514 240.913C211.496 240.564 208.504 240.334 202.496 239.772C203.672 227.507 204.857 215.242 206.033 202.978C206.058 202.756 205.956 202.637 205.734 202.62C202.786 202.348 201.311 202.194 198.371 201.853ZM291.492 202.202C289.37 201.316 287.163 201.01 284.819 201.274C282.518 201.529 280.455 202.314 278.589 203.626C276.722 204.947 275.256 206.609 274.208 208.629C273.16 210.657 272.708 212.882 272.904 215.302C273.109 217.944 273.901 220.263 275.307 222.257C276.705 224.26 278.768 225.828 281.495 226.961C282.978 227.558 284.571 228.181 286.267 228.828C287.963 229.468 289.225 229.936 290.026 230.235C292.447 231.129 293.759 232.357 293.964 233.95C294.134 235.331 293.759 236.601 292.822 237.76C291.885 238.919 290.657 239.592 289.148 239.763C287.64 239.925 286.293 239.559 285.126 238.655C283.95 237.752 283.294 236.576 283.157 235.153C283.038 233.959 282.986 233.354 282.867 232.169C282.833 231.965 282.739 231.862 282.543 231.879C279.347 232.203 277.744 232.339 274.54 232.595C274.301 232.621 274.191 232.732 274.208 232.953C274.31 234.155 274.352 234.752 274.446 235.945C274.625 238.314 275.435 240.436 276.892 242.303C278.35 244.169 280.233 245.592 282.543 246.572C284.844 247.553 287.359 247.894 290.026 247.596L290.035 247.578H290.044C292.711 247.271 295.089 246.402 297.126 244.979C299.171 243.555 300.697 241.757 301.703 239.626C302.708 237.496 303.024 235.194 302.666 232.748C302.299 230.217 301.285 228.18 299.675 226.638C298.064 225.095 296.009 223.876 293.52 222.973C293.375 222.905 292.958 222.751 292.294 222.538C291.629 222.325 290.879 222.044 290.035 221.738C289.2 221.422 288.433 221.14 287.717 220.893C287.009 220.646 286.532 220.467 286.285 220.364C284.478 219.691 283.208 218.907 282.467 218.021C281.725 217.134 281.282 215.984 281.145 214.561C281.009 213.18 281.393 211.927 282.279 210.811C283.166 209.694 284.299 209.055 285.697 208.902C287.052 208.757 288.271 209.09 289.379 209.916C290.478 210.751 291.126 211.911 291.322 213.419C291.62 215.533 291.765 216.59 292.055 218.703C292.072 218.873 292.183 218.949 292.361 218.924C295.463 218.532 297.007 218.328 300.109 217.867C300.296 217.842 300.373 217.74 300.347 217.57C300.041 215.456 299.879 214.399 299.572 212.285C299.223 209.925 298.302 207.879 296.845 206.132C295.396 204.393 293.606 203.089 291.492 202.202ZM170.45 196.867C168.047 196.416 165.762 196.569 163.572 197.327C161.382 198.094 159.507 199.296 157.956 200.984C156.405 202.671 155.339 204.666 154.819 206.992C153.004 214.91 152.093 218.865 150.277 226.782C149.732 229.194 149.842 231.513 150.669 233.738C151.487 235.962 152.859 237.897 154.785 239.516C156.711 241.127 159.038 242.209 161.731 242.72V242.703H161.749C164.442 243.223 166.982 243.07 169.343 242.269C171.703 241.459 173.681 240.164 175.283 238.4C176.877 236.627 177.857 234.513 178.232 232.075C178.42 230.891 178.513 230.294 178.692 229.117C178.718 228.947 178.641 228.845 178.445 228.82C175.223 228.317 173.62 228.044 170.416 227.482C170.22 227.456 170.109 227.524 170.084 227.695C169.871 228.871 169.777 229.468 169.564 230.644C169.317 232.016 168.592 233.15 167.365 234.053C166.138 234.948 164.748 235.254 163.206 234.964C161.706 234.683 160.538 233.95 159.703 232.766C158.859 231.573 158.612 230.191 158.936 228.623C160.564 220.663 161.374 216.691 162.993 208.731C163.274 207.376 163.948 206.259 165.005 205.39C166.07 204.512 167.391 204.239 169.002 204.537C170.434 204.81 171.533 205.543 172.308 206.737C173.093 207.938 173.356 209.242 173.109 210.649L172.59 213.598C172.564 213.76 172.641 213.862 172.82 213.896C175.888 214.441 177.431 214.688 180.508 215.174C180.687 215.208 180.789 215.132 180.814 214.961C181.002 213.777 181.095 213.189 181.274 212.004C181.641 209.609 181.394 207.342 180.542 205.202C179.69 203.063 178.394 201.265 176.655 199.774C174.908 198.291 172.853 197.319 170.45 196.867ZM320.036 196.322C317.104 196.935 315.63 197.234 312.689 197.78C312.502 197.805 312.442 197.907 312.468 198.077C315.186 212.728 317.897 227.387 320.607 242.038C320.65 242.26 320.786 242.337 321.033 242.294H321.042C324.365 241.672 326.027 241.339 329.334 240.657C329.538 240.615 329.607 240.488 329.564 240.275C326.496 225.701 323.419 211.109 320.359 196.527C320.317 196.348 320.206 196.287 320.036 196.322ZM122.653 185.293C122.483 185.234 122.389 185.293 122.381 185.472C122.568 194.583 122.756 199.151 123.284 208.296C117.463 216.231 114.455 220.152 108.293 227.907C108.173 228.095 108.207 228.223 108.403 228.291L108.397 228.285C111.603 229.331 113.205 229.844 116.431 230.831C116.679 230.908 116.849 230.848 116.96 230.652C120.914 224.839 122.85 221.907 126.642 216.018C126.642 223.024 126.685 226.518 126.847 233.541C126.889 233.771 127 233.925 127.196 233.976C130.435 234.879 132.063 235.306 135.318 236.15C135.565 236.218 135.66 236.132 135.617 235.894C134.654 226.024 134.27 221.089 133.665 211.254C139.026 203.848 141.617 200.114 146.663 192.563C146.756 192.41 146.705 192.307 146.535 192.265C143.646 191.523 142.214 191.132 139.333 190.339C139.111 190.279 138.967 190.33 138.873 190.484C135.447 195.964 133.699 198.683 130.137 204.095C130.068 197.626 130.069 194.387 130.154 187.935C130.171 187.765 130.059 187.637 129.847 187.569C126.958 186.691 125.525 186.231 122.653 185.293ZM360.152 185.932C360.143 185.762 360.024 185.694 359.811 185.771C356.931 186.708 355.498 187.151 352.609 188.021C352.439 188.08 352.362 188.191 352.362 188.369C353.462 198.426 354.459 208.475 355.371 218.549C350.777 209.523 346.294 200.472 341.879 191.362C341.785 191.2 341.658 191.157 341.487 191.199C338.564 191.983 337.089 192.358 334.149 193.091C333.928 193.151 333.859 193.262 333.944 193.415C340.541 207.171 347.419 220.799 354.672 234.223C354.774 234.427 354.928 234.496 355.124 234.445L355.133 234.419H355.14C358.652 233.456 360.391 232.953 363.886 231.922C364.073 231.871 364.166 231.726 364.149 231.504C363.152 216.282 361.865 201.086 360.152 185.932ZM90.0623 172.952C89.8835 172.876 89.7806 172.926 89.7039 173.079C83.7635 186.759 77.8319 200.421 71.8914 214.092C71.7977 214.288 71.857 214.425 72.036 214.51L72.0272 214.518H72.036C81.0532 218.421 85.6049 220.228 94.784 223.586C94.9799 223.663 95.0908 223.612 95.159 223.45C96.1732 220.664 96.684 219.265 97.6981 216.479C97.7747 216.274 97.7156 216.138 97.5369 216.07C91.801 213.964 88.9453 212.856 83.2606 210.546C84.9821 206.328 85.835 204.223 87.5565 200.004C93.0876 202.246 95.8667 203.319 101.449 205.364C101.628 205.432 101.738 205.382 101.806 205.22C102.787 202.442 103.281 201.052 104.262 198.282C104.33 198.121 104.261 198.009 104.091 197.941C98.6362 195.938 95.9259 194.889 90.5311 192.691C92.0566 188.932 92.8232 187.049 94.3573 183.29C99.6159 185.421 102.267 186.453 107.577 188.396C107.756 188.464 107.857 188.412 107.926 188.25C108.923 185.506 109.427 184.151 110.424 181.406C110.5 181.202 110.44 181.074 110.278 181.006C102.122 178.023 98.0735 176.413 90.0623 172.952ZM394.304 173.14C394.218 172.944 394.09 172.867 393.929 172.944C385.917 176.404 381.869 178.014 373.713 180.997C373.551 181.065 373.5 181.176 373.551 181.338C378.639 195.341 383.736 209.353 388.815 223.364C388.883 223.569 389.011 223.646 389.207 223.57L389.213 223.575C398.388 220.21 402.94 218.404 411.955 214.51C412.134 214.433 412.202 214.305 412.125 214.152C410.949 211.424 410.361 210.069 409.184 207.342C409.108 207.146 408.963 207.078 408.784 207.163C403.142 209.592 400.304 210.759 394.594 212.984C392.94 208.739 392.113 206.626 390.46 202.373C396.017 200.208 398.779 199.075 404.267 196.705C404.438 196.62 404.505 196.5 404.429 196.347C403.227 193.662 402.63 192.316 401.437 189.631C401.361 189.469 401.241 189.427 401.071 189.503C395.71 191.821 393.017 192.921 387.597 195.034C386.131 191.25 385.388 189.359 383.914 185.574C389.198 183.512 391.823 182.437 397.048 180.179C397.218 180.102 397.278 179.983 397.202 179.83C396.043 177.154 395.463 175.816 394.304 173.14ZM389.207 223.578H389.216L389.213 223.575C389.211 223.576 389.209 223.578 389.207 223.578ZM422.703 183.997C421.817 182.242 419.66 181.543 417.879 182.412C416.106 183.273 415.339 185.421 416.182 187.185C417.026 188.94 419.174 189.657 420.998 188.771V188.779C422.822 187.884 423.589 185.744 422.703 183.997ZM66.1053 182.369C64.324 181.5 62.1677 182.2 61.2899 183.955C60.4036 185.694 61.1702 187.841 62.994 188.728C64.8179 189.614 66.9659 188.907 67.8182 187.134V187.143C68.6534 185.379 67.8865 183.239 66.1053 182.369Z" fill="#D49446"/>
<path fill-rule="evenodd" clip-rule="evenodd" d="M436.773 301.597L393.732 299.842L389.565 301.884L393.732 303.918L436.773 302.147L437.659 301.876L436.773 301.589V301.597ZM45.5395 301.597L88.597 299.842L92.7646 301.884L88.597 303.918L45.5395 302.147L44.6616 301.876L45.5395 301.589V301.597Z" fill="#D49446"/>
</svg>
