<svg width="437" height="94" viewBox="0 0 437 94" fill="none" xmlns="http://www.w3.org/2000/svg">
<g clip-path="url(#clip0_2_221)">
<path fill-rule="evenodd" clip-rule="evenodd" d="M433.06 17.28C431.08 19.27 428.69 20.26 425.88 20.26C423.07 20.26 420.68 19.27 418.71 17.28C416.75 15.3 415.77 12.91 415.77 10.1C415.77 7.29 416.76 4.93 418.74 2.96C420.71 0.99 423.09 0 425.88 0C428.67 0 431.08 0.98 433.06 2.95C435.04 4.92 436.03 7.3 436.03 10.09C436.03 12.88 435.04 15.29 433.06 17.27V17.28ZM419.68 3.94C417.99 5.65 417.14 7.7 417.14 10.12C417.14 12.54 417.98 14.62 419.67 16.34C421.37 18.05 423.43 18.91 425.85 18.91C428.27 18.91 430.34 18.06 432.04 16.34C433.73 14.63 434.59 12.55 434.59 10.12C434.59 7.69 433.74 5.65 432.04 3.94C430.33 2.23 428.27 1.37 425.85 1.37C423.43 1.37 421.39 2.23 419.68 3.94ZM425.68 4.5C427.06 4.5 428.08 4.63 428.72 4.9C429.87 5.38 430.45 6.32 430.45 7.72C430.45 8.71 430.09 9.45 429.37 9.92C428.98 10.17 428.45 10.35 427.77 10.46C428.63 10.6 429.25 10.96 429.65 11.54C430.05 12.13 430.25 12.7 430.25 13.26V14.07C430.25 14.33 430.25 14.6 430.27 14.9C430.29 15.19 430.32 15.39 430.37 15.48L430.45 15.62H428.62C428.62 15.62 428.6 15.55 428.59 15.51C428.59 15.47 428.57 15.43 428.57 15.39L428.53 15.03V14.15C428.53 12.87 428.18 12.02 427.48 11.61C427.06 11.37 426.34 11.25 425.3 11.25H423.76V15.62H421.79V4.5H425.69H425.68ZM427.82 6.27C427.32 5.99 426.53 5.86 425.43 5.86H423.75V9.87H425.53C426.36 9.87 426.99 9.79 427.41 9.62C428.18 9.32 428.57 8.74 428.57 7.89C428.57 7.08 428.32 6.54 427.82 6.27Z" fill="#231F20"/>
<path fill-rule="evenodd" clip-rule="evenodd" d="M409.13 70.86H375.28L412.08 14.98V4.93857e-06H342C340.72 4.93857e-06 332.96 -0.109995 329.99 1.3C327.01 2.71 324.82 5.38 323.9 5.38C323.53 5.38 323.48 5.41001 323.48 5.07C323.48 4.73 323.45 3.21001 323.45 3.21001L324.53 4.93857e-06H288.08L289.39 3.23001V51.5C289.39 51.5 289.41 51.45 289.23 51.94C285.71 61.87 284.08 63.78 282.33 66.05C280.58 68.33 270.77 81.13 253.6 81.13C232.76 81.13 232.23 58.16 232.23 55.36C232.23 52.55 233.28 50.1 233.28 50.1H286.88C286.88 50.1 293.03 4.93857e-06 243.46 4.93857e-06C204.05 4.93857e-06 197.9 31.98 197.72 32.5C197.55 33.02 197.06 33.37 197.06 32.53C197.06 31.69 197.04 3.89001 197.04 3.89001L198.3 4.93857e-06H161.17L162.37 3.93001V32.83H137.48V3.93001L138.6 4.93857e-06H101.34L102.47 3.95001V90.08L101.42 93.54H138.97L137.75 90.08V51.86H162.67V90.08L161.52 93.54H198.63L197.06 90.11V62.59C197.06 61.86 197.32 61.53 198.41 65.23C205.54 89.49 226.97 93.54 248.09 93.54C267.38 93.54 282.36 88.8 285.28 87.49C288.2 86.18 289.65 85.7 289.65 85.7V90.16L288.34 93.5H325.67L324.14 90.12V34.97C324.14 31.17 325.44 28.84 327.78 26.51C330.11 24.18 335.03 22.85 338.49 22.85H366.39C366.39 22.85 332.47 75.25 332 75.95C331.53 76.65 330.68 77.9 330.68 78.4C330.68 79.44 330.66 93.49 330.66 93.49H410.52L412.55 93.53V69.62L409.12 70.84L409.13 70.86ZM232.78 29.62C233.56 23.74 235.42 12.71 242.07 12.71C248.72 12.71 249.74 22.48 250.58 30.76C250.92 34.06 250.22 34.06 248.12 34.06C246.02 34.06 234.7 34.12 234.7 34.12C233.14 34.12 232.13 34.53 232.78 29.62Z" fill="#231F20"/>
<path fill-rule="evenodd" clip-rule="evenodd" d="M7.67999 7.72H85.8V85.83H7.67999V7.72Z" fill="white"/>
<path fill-rule="evenodd" clip-rule="evenodd" d="M64.31 14.16C54.66 14.16 48.49 21.65 47.59 22.49C46.69 23.33 46.64 23.49 45.69 22.6C44.74 21.7 38.62 14.16 29.44 14.16C18.05 14.16 8.82001 24.02 8.82001 33.78C8.82001 43.54 20.58 53.25 27.07 59.63C33.56 66.01 46.97 79.38 46.97 79.38L56.5 69.97C59.49 67.02 77.07 50.45 81.5 44.12C83.88 40.72 84.67 36.39 84.67 33.73C84.67 23.6 73.96 14.16 64.31 14.16ZM67.68 48.19C62.61 53.15 57.79 58.16 56.92 59C51.34 64.4 46.79 68.65 46.79 68.65C46.79 68.65 35.5 57.78 29.07 51.4C22.63 45.02 16.99 41.01 16.99 33.73C16.99 26.45 23.79 21.81 29.12 21.81C34.45 21.81 38.14 25.4 41.3 28.56C44.46 31.72 46.84 33.94 46.84 33.94C46.84 33.94 48.69 32.09 52.27 28.45C55.86 24.81 58.65 21.8 65.14 21.8C71.63 21.8 76.59 28.82 76.59 33.72C76.59 39.66 72.63 43.32 67.68 48.17V48.19Z" fill="#ED1C24"/>
<path fill-rule="evenodd" clip-rule="evenodd" d="M7.65 2.58H0V90.03H7.65V2.58Z" fill="#231F20"/>
<path fill-rule="evenodd" clip-rule="evenodd" d="M93.51 4.89999H85.86V91.49H93.51V4.89999Z" fill="#231F20"/>
<path fill-rule="evenodd" clip-rule="evenodd" d="M93.51 0H0V7.65H93.51V0Z" fill="#231F20"/>
<path fill-rule="evenodd" clip-rule="evenodd" d="M93.51 85.89H0V93.54H93.51V85.89Z" fill="#231F20"/>
</g>
<defs>
<clipPath id="clip0_2_221">
<rect width="436.03" height="93.54" fill="white"/>
</clipPath>
</defs>
</svg>
