<svg width="817" height="375" viewBox="0 0 817 375" fill="none" xmlns="http://www.w3.org/2000/svg">
<g clip-path="url(#clip0_1_3389)">
<path fill-rule="evenodd" clip-rule="evenodd" d="M314.94 354.11V374.29L335.35 374.3V354.11H349.93C350.71 354.11 351.48 354.08 352.27 354.03L363.68 374.29H387.53L372.29 346.7C381.9 339.53 387.61 328.45 387.61 316.43C387.61 295.71 370.66 278.75 349.93 278.75H314.94V298.97H349.64C359.19 298.96 367 306.77 367 316.32C367 325.87 359.19 333.68 349.64 333.68H314.94V354.11Z" fill="#16254C"/>
<path fill-rule="evenodd" clip-rule="evenodd" d="M56.9 374.3L80.36 315.69V374.3H100.77V278.74H75.57L50.29 339.54L25.2 278.74H0V374.3H20.23L20.22 315.69L43.68 374.3H56.9Z" fill="#16254C"/>
<path fill-rule="evenodd" clip-rule="evenodd" d="M565.63 278.74H494.77H472.45H471.86L442.15 341.81L412.44 278.74H389.53L434.31 374.3H442.15H449.99L485.46 298.6H565.63V278.74Z" fill="#16254C"/>
<path fill-rule="evenodd" clip-rule="evenodd" d="M228.73 354.11V374.29L249.14 374.3V354.11H263.72C264.5 354.11 265.27 354.08 266.06 354.03L277.47 374.29H301.32L286.08 346.7C295.69 339.53 301.4 328.45 301.4 316.43C301.4 295.71 284.45 278.75 263.72 278.75H228.73V298.97H263.43C272.98 298.96 280.79 306.77 280.79 316.32C280.79 325.87 272.98 333.68 263.43 333.68H228.73V354.11Z" fill="#16254C"/>
<path fill-rule="evenodd" clip-rule="evenodd" d="M641.82 374.3V354.25H601.38V278.74H580.78V374.3H641.82Z" fill="#16254C"/>
<path fill-rule="evenodd" clip-rule="evenodd" d="M520.24 336.35L551.79 336.34L551.8 316.4H499.92L499.91 374.3H565.92L565.93 354.25H519.99L520.24 336.35Z" fill="#16254C"/>
<path fill-rule="evenodd" clip-rule="evenodd" d="M815.26 312.88L794.65 322.64V374.3H815.26V312.88Z" fill="#178FEB"/>
<path fill-rule="evenodd" clip-rule="evenodd" d="M804.95 277.42C811.37 277.42 816.58 282.63 816.58 289.05C816.58 295.47 811.37 300.68 804.95 300.68C798.53 300.68 793.32 295.47 793.32 289.05C793.32 282.63 798.53 277.42 804.95 277.42Z" fill="#178FEB"/>
<path fill-rule="evenodd" clip-rule="evenodd" d="M760.29 374.11H783.2L738.42 278.56H722.74L677.96 374.11H700.87L705.13 365.07L746.74 345.35L760.29 374.11ZM715.03 344.05L730.58 311.05L740.45 332.01L715.03 344.06V344.05Z" fill="#178FEB"/>
<path fill-rule="evenodd" clip-rule="evenodd" d="M194.37 374.3H217.28L172.5 278.75H156.82L112.04 374.3H134.95L139.21 365.26L180.82 345.54L194.37 374.3ZM149.11 344.24L164.66 311.24L174.53 332.2L149.11 344.25V344.24Z" fill="#16254C"/>
<path d="M466.56 138.56C451.96 169.89 434.93 194.91 408.29 194.91C385.67 194.91 369.98 176.88 356.83 152.27C363.15 140.17 368.84 126.86 374.43 113.37C385.83 139.99 397.19 162.22 408.29 162.22C419.39 162.22 431.01 139.47 442.56 112.43C454.84 83.66 465.31 53.66 483.01 27.62C506.38 -6.74 525.96 -11.67 546.31 28.06C557.17 49.28 563.07 70.91 563.07 97.45C563.07 122.54 557.8 143.26 548.04 163.38C543.06 153.9 533.13 147.44 521.69 147.44C520.99 147.44 520.29 147.47 519.59 147.52C526.67 131.79 530.36 114.89 530.36 97.46C530.36 77 525.51 57.39 515.75 39.43C507.51 45.96 499.15 62.4 490.76 81.66C482.32 100.42 475.19 120.04 466.55 138.57" fill="#16254C"/>
<path d="M325.81 81.65C317.42 62.39 309.07 45.95 300.83 39.42C291.07 57.38 286.22 77 286.22 97.45C286.22 129.09 298.38 158.99 320.92 183.28C297.44 208.17 281.25 188.29 270.27 166.84C259.41 145.63 253.52 123.98 253.52 97.45C253.52 70.92 259.42 49.27 270.28 28.06C290.63 -11.67 310.21 -6.74 333.58 27.62C336.68 32.18 339.83 37.26 343.02 42.79C336.89 54.99 331.33 68.29 325.82 81.65" fill="#16254C"/>
<path fill-rule="evenodd" clip-rule="evenodd" d="M309.41 145.47C314.69 137.52 320 126.55 325.32 114.39C328.94 106.12 332.39 97.78 335.83 89.43C343.35 71.18 351.04 51.95 361.15 34.98C373.42 14.38 388.09 0 408.29 0C430.92 0 446.61 18.06 459.77 42.69C453.46 54.77 447.77 68.1 442.18 81.6C430.76 54.95 419.4 32.7 408.29 32.7C395.03 32.7 381.4 64.42 367.76 97.46C362.11 111.26 356.48 125.13 350.02 138.57C343.6 151.92 336.34 163.83 329.07 173.61C324.91 169.23 320.65 163.98 317.21 158.88C314.29 154.55 311.69 150.1 309.42 145.48" fill="#178FEB"/>
<path d="M524.4 146.95C524.4 146.95 524.42 146.95 524.4 146.94V146.95Z" fill="#4D4D4D"/>
<path fill-rule="evenodd" clip-rule="evenodd" d="M490.77 113.26C497.29 128.22 503.74 141.53 510.19 149.75C499.47 154.25 491.95 164.84 491.95 177.19C491.95 177.92 491.98 178.64 492.03 179.36C488.52 175.22 485.47 170.9 483.01 167.29C479.91 162.73 476.76 157.65 473.57 152.12C479.7 139.92 485.26 126.62 490.77 113.26Z" fill="#178FEB"/>
<path fill-rule="evenodd" clip-rule="evenodd" d="M521.69 159.45C511.9 159.45 503.96 167.39 503.96 177.18C503.96 186.97 511.9 194.91 521.69 194.91C531.48 194.91 539.42 186.97 539.42 177.18C539.42 167.39 531.48 159.45 521.69 159.45Z" fill="#178FEB"/>
</g>
<defs>
<clipPath id="clip0_1_3389">
<rect width="816.58" height="374.3" fill="white"/>
</clipPath>
</defs>
</svg>
