<svg width="662" height="69" viewBox="0 0 662 69" fill="none" xmlns="http://www.w3.org/2000/svg">
<path d="M41.2479 30.0788L13.7547 0.997737H0.283813V68.4971H18.3346V32.2884L41.2479 56.4656L64.0622 32.2884V68.4971H82.2119V0.997737H68.741L41.2479 30.0788ZM87.9226 68.4971H163.165V1.18306H87.9226V68.4971ZM105.917 18.2325H145.057V51.4477H105.917V18.2325ZM168.762 68.4971H244.004V1.18306H168.762V68.4971ZM186.87 18.2325H226.01V51.4477H186.87V18.2325ZM304.461 39.6157L263.412 0.897949H249.658V68.4971H267.709V29.979L308.758 68.4971H322.512V0.897949H304.461V39.6157ZM346.782 18.2325H398.545V1.18306H328.745V38.1616L380.876 45.9593V50.8774H328.166V68.4971H398.927V31.4188L346.782 23.7209V18.2325ZM440.103 0.897949L404.553 55.3109V68.4971H486.538V55.3109L450.987 0.897949H440.103ZM429.586 50.1076L445.446 25.7451L461.49 50.1076H429.586ZM533.113 30.0788L505.62 0.997737H492.163V68.4971H510.2V32.2884L533.113 56.4656L555.942 32.2884V68.4971H574.077V0.997737H560.621L533.113 30.0788ZM626.138 0.897949H615.253L579.731 55.3109V68.4971H661.716V55.3109L626.138 0.897949ZM604.751 50.1076L620.611 25.7451L636.64 50.1076H604.751Z" fill="white"/>
</svg>
