<svg width="400" height="134" viewBox="0 0 400 134" fill="none" xmlns="http://www.w3.org/2000/svg">
<g clip-path="url(#clip0_2_228)">
<path d="M221.119 51.8988C221.139 40.6023 223.021 31.2255 228.039 22.6705C234.647 11.4028 244.443 4.60651 257.282 2.31905C266.516 0.672431 275.548 1.47706 284.233 5.14676C294.264 9.38545 301.256 16.7363 305.792 26.5414C309.548 34.6595 310.851 43.2518 310.653 52.1258C310.501 59.0571 309.448 65.8275 306.857 72.2876C300.831 87.3313 289.88 96.4582 273.881 99.1163C262.74 100.967 252.069 99.4037 242.288 93.3919C234.048 88.3256 228.51 81.0322 224.966 72.118C222.195 65.1493 221.145 57.876 221.119 51.8959V51.8988ZM243.149 49.5826C243.152 56.1087 243.754 61.609 245.863 66.8276C248.841 74.1986 253.736 79.4718 261.939 80.7994C267.219 81.6558 272.32 81.0638 276.974 78.2045C280.996 75.7331 283.659 72.0893 285.524 67.8276C287.372 63.609 288.204 59.1577 288.502 54.5799C288.898 48.5538 288.565 42.6024 286.792 36.7918C285.515 32.6048 283.49 28.8374 280.334 25.7425C276.05 21.5411 270.785 20.0583 264.949 20.2394C261.77 20.3371 258.708 20.998 255.874 22.5067C251.458 24.8574 248.494 28.5357 246.443 33.0072C243.889 38.5677 243.16 44.4789 243.146 49.5826H243.149Z" fill="#425477"/>
<path d="M114.338 21.8055V97.2024H92.8334V96.119C92.8334 66.7442 92.8391 37.3723 92.8133 7.99743C92.8133 7.10659 93.0802 6.79049 93.9352 6.57783C101.607 4.65246 109.354 3.12079 117.245 2.5518C122.633 2.16385 128.047 1.9397 133.447 1.97706C139.952 2.02304 146.313 3.08056 152.275 5.91689C160.963 10.0492 166.139 17.0093 168.589 26.162C170.248 32.3605 170.773 38.6999 170.784 45.0852C170.813 62.086 170.796 79.0867 170.793 96.0874C170.793 96.4552 170.761 96.8231 170.741 97.2311H149.308C149.308 96.7081 149.308 96.2397 149.308 95.7713C149.308 80.1068 149.32 64.4453 149.302 48.7808C149.297 43.9817 149.133 39.1856 148.094 34.4785C147.736 32.8491 147.239 31.2312 146.62 29.6823C144.474 24.3315 140.29 21.6388 134.753 20.7767C129.688 19.9865 124.65 20.4807 119.615 21.0871C117.887 21.2969 116.166 21.5526 114.341 21.8026L114.338 21.8055Z" fill="#425477"/>
<path d="M0.00284676 3.94842H21.5019C21.5019 4.43982 21.5019 4.87087 21.5019 5.3048C21.5019 21.0698 21.4961 36.8378 21.5076 52.6028C21.5105 57.7841 21.806 62.9423 23.1574 67.977C23.9723 71.0145 25.1687 73.8738 27.4411 76.1584C29.966 78.6959 33.1222 79.989 36.5738 80.423C42.7283 81.196 48.8656 80.6529 54.9799 79.7907C55.8894 79.6614 56.1161 79.2821 56.1161 78.397C56.0931 54.0626 56.096 29.7254 56.1017 5.39101C56.1017 3.87945 55.7861 3.88232 57.5736 3.88232C63.84 3.88232 70.1064 3.90244 76.3699 3.85933C77.3741 3.85359 77.6151 4.15245 77.6151 5.13238C77.5893 34.5388 77.5921 63.9481 77.6151 93.3545C77.6151 94.1793 77.4142 94.5356 76.5736 94.7368C63.005 97.9582 49.3045 99.9956 35.3114 99.3203C28.7839 99.0042 22.5147 97.6306 16.7705 94.3287C9.56594 90.1877 5.12726 83.903 2.68556 76.0894C1.20792 71.3622 0.444706 66.4885 0.220907 61.5515C0.0430158 57.6174 0.0229313 53.6718 0.0171928 49.732C-0.00863009 34.9612 0.00284676 20.1876 0.00284676 5.41687V3.94842Z" fill="#425477"/>
<path d="M399.943 97.257H378.624C378.593 96.7369 378.538 96.2426 378.538 95.7483C378.533 80.9431 378.593 66.1379 378.501 51.3326C378.472 46.5479 378.174 41.7518 377.761 36.9814C377.471 33.6278 376.49 30.4036 374.748 27.4667C372.315 23.363 368.487 21.5095 363.971 20.7825C358.944 19.9721 353.938 20.4951 348.937 21.0727C347.511 21.2394 346.093 21.4721 344.664 21.6245C343.841 21.7107 343.548 22.0239 343.551 22.9176C343.586 36.7975 343.574 50.6774 343.574 64.5573C343.574 75.0118 343.574 85.4634 343.574 95.9179C343.574 96.3547 343.537 96.7886 343.514 97.257H322.158C322.135 96.8777 322.092 96.5185 322.092 96.1593C322.089 66.7528 322.092 37.3464 322.075 7.94283C322.075 7.16981 322.259 6.81922 323.065 6.61519C330.8 4.66395 338.613 3.11791 346.575 2.55179C351.998 2.16672 357.447 1.93682 362.878 1.98855C369.345 2.0489 375.666 3.12653 381.591 5.95711C390.276 10.1067 395.429 17.0898 397.854 26.2425C399.486 32.4065 400.006 38.7056 400 45.0651C399.989 62.063 399.997 79.0637 399.994 96.0615C399.994 96.4294 399.963 96.7972 399.943 97.257Z" fill="#425477"/>
<path d="M185.153 97.214V36.7717H206.515V97.214H185.153Z" fill="#FF1149"/>
<path d="M195.692 -2.43092e-05C203.353 -0.0402559 208.753 5.44561 208.885 13.1873C209.025 21.3802 202.764 26.4178 195.772 26.4867C188.106 26.5615 182.456 21.0124 182.43 13.423C182.405 5.4686 187.764 0.043081 195.692 -2.43092e-05Z" fill="#FF1149"/>
<path d="M2.34702 133.678V118.744H10.8456V120.014H3.81031V125.273H10.0509V126.543H3.81031V133.678H2.34702Z" fill="#425477"/>
<path d="M66.2559 118.741H67.7192V133.675H66.2559V118.741Z" fill="#425477"/>
<path d="M134.471 133.678C134.196 133.178 133.849 132.589 133.43 131.911C133.011 131.233 132.546 130.511 132.035 129.747C131.525 128.985 130.991 128.195 130.434 127.382C129.878 126.569 129.327 125.776 128.776 125.005C128.225 124.235 127.686 123.514 127.158 122.842C126.63 122.169 126.162 121.586 125.755 121.097V133.678H124.314V118.744H125.476C126.208 119.563 126.994 120.508 127.829 121.58C128.667 122.652 129.485 123.747 130.291 124.859C131.094 125.971 131.846 127.06 132.543 128.123C133.241 129.187 133.812 130.112 134.259 130.902V118.747H135.699V133.681H134.474L134.471 133.678Z" fill="#425477"/>
<path d="M201.763 118.741V120.011H196.986V133.675H195.523V120.011H190.745V118.741H201.763Z" fill="#425477"/>
<path d="M256.809 133.678V118.744H265.417V120.014H258.272V125.209H264.642V126.46H258.272V132.408H265.976V133.678H256.809Z" fill="#425477"/>
<path d="M327.306 134C326.344 134 325.452 133.828 324.626 133.483C323.799 133.138 323.082 132.635 322.474 131.974C321.863 131.313 321.384 130.497 321.031 129.529C320.678 128.557 320.503 127.448 320.503 126.198C320.503 124.948 320.692 123.839 321.074 122.867C321.452 121.896 321.96 121.083 322.591 120.422C323.223 119.761 323.954 119.261 324.786 118.925C325.618 118.588 326.485 118.419 327.392 118.419C327.951 118.419 328.459 118.453 328.918 118.528C329.377 118.6 329.779 118.689 330.123 118.798C330.467 118.907 330.76 119.014 331.007 119.12C331.251 119.229 331.437 119.324 331.566 119.41L331.093 120.683C330.734 120.468 330.278 120.255 329.727 120.048C329.176 119.841 328.491 119.735 327.673 119.735C326.74 119.735 325.925 119.893 325.231 120.209C324.534 120.525 323.951 120.971 323.478 121.546C323.005 122.12 322.649 122.804 322.414 123.592C322.178 124.382 322.058 125.258 322.058 126.221C322.058 127.184 322.175 128.106 322.414 128.905C322.652 129.701 322.999 130.382 323.458 130.942C323.917 131.503 324.479 131.934 325.148 132.236C325.816 132.537 326.58 132.69 327.44 132.69C328.387 132.69 329.179 132.601 329.819 132.42C330.456 132.241 330.941 132.057 331.271 131.871L331.678 133.121C331.578 133.193 331.406 133.276 331.162 133.368C330.918 133.463 330.608 133.558 330.235 133.658C329.862 133.759 329.432 133.842 328.944 133.905C328.456 133.971 327.911 134.003 327.308 134.003L327.306 134Z" fill="#425477"/>
<path d="M396.488 118.741H397.951V133.675H396.488V126.5H388.397V133.675H386.934V118.741H388.397V125.227H396.488V118.741Z" fill="#425477"/>
</g>
<defs>
<clipPath id="clip0_2_228">
<rect width="400" height="134" fill="white"/>
</clipPath>
</defs>
</svg>
